<svg xmlns="http://www.w3.org/2000/svg" width="512" height="512" viewBox="0 0 512 512">
  <defs>
    <linearGradient id="bg" x1="0" y1="0" x2="1" y2="1">
      <stop offset="0%" stop-color="#1e293b"/>
      <stop offset="100%" stop-color="#0f172a"/>
    </linearGradient>
    <linearGradient id="accentGrad" x1="0" y1="0" x2="1" y2="1">
      <stop offset="0%" stop-color="#3b82f6"/>
      <stop offset="100%" stop-color="#22d3ee"/>
    </linearGradient>
  </defs>
  <rect width="512" height="512" rx="80" fill="url(#bg)"/>
  <rect x="116" y="130" width="280" height="196" rx="32" fill="#1e3b5f" stroke="url(#accentGrad)" stroke-width="6"/>
  <circle cx="196" cy="228" r="28" fill="url(#accentGrad)"/>
  <circle cx="316" cy="228" r="28" fill="url(#accentGrad)"/>
  <circle cx="204" cy="220" r="8" fill="#fff" opacity=".4"/>
  <circle cx="324" cy="220" r="8" fill="#fff" opacity=".4"/>
  <rect x="188" y="278" width="136" height="10" rx="5" fill="#475569"/>
  <rect x="178" y="296" width="156" height="10" rx="5" fill="#475569"/>
  <path d="M80 240 Q40 256 80 272" stroke="#4ade80" stroke-width="6" fill="none" stroke-linecap="round"/>
  <path d="M64 220 Q8 256 64 292" stroke="#4ade80" stroke-width="5" fill="none" stroke-linecap="round" opacity=".5"/>
  <path d="M48 200 Q-16 256 48 312" stroke="#4ade80" stroke-width="4" fill="none" stroke-linecap="round" opacity=".25"/>
  <path d="M432 240 Q472 256 432 272" stroke="#4ade80" stroke-width="6" fill="none" stroke-linecap="round"/>
  <path d="M448 220 Q504 256 448 292" stroke="#4ade80" stroke-width="5" fill="none" stroke-linecap="round" opacity=".5"/>
  <path d="M464 200 Q528 256 464 312" stroke="#4ade80" stroke-width="4" fill="none" stroke-linecap="round" opacity=".25"/>
  <line x1="256" y1="130" x2="256" y2="96" stroke="url(#accentGrad)" stroke-width="8" stroke-linecap="round"/>
  <circle cx="256" cy="84" r="14" fill="#22d3ee"/>
  <circle cx="256" cy="84" r="6" fill="#fff" opacity=".3"/>
</svg>
