<svg xmlns="http://www.w3.org/2000/svg" width="192" height="192" viewBox="0 0 192 192">
  <defs>
    <linearGradient id="bg" x1="0" y1="0" x2="1" y2="1">
      <stop offset="0%" stop-color="#1e293b"/>
      <stop offset="100%" stop-color="#0f172a"/>
    </linearGradient>
    <linearGradient id="accentGrad" x1="0" y1="0" x2="1" y2="1">
      <stop offset="0%" stop-color="#3b82f6"/>
      <stop offset="100%" stop-color="#22d3ee"/>
    </linearGradient>
  </defs>
  <rect width="192" height="192" rx="36" fill="url(#bg)"/>
  <rect x="46" y="50" width="100" height="72" rx="14" fill="#1e3b5f" stroke="url(#accentGrad)" stroke-width="3"/>
  <circle cx="72" cy="86" r="10" fill="url(#accentGrad)"/>
  <circle cx="120" cy="86" r="10" fill="url(#accentGrad)"/>
  <circle cx="75" cy="83" r="3" fill="#fff" opacity=".5"/>
  <circle cx="123" cy="83" r="3" fill="#fff" opacity=".5"/>
  <rect x="72" y="104" width="48" height="4" rx="2" fill="#475569"/>
  <rect x="68" y="111" width="56" height="4" rx="2" fill="#475569"/>
  <path d="M30 86 Q18 96 30 106" stroke="#4ade80" stroke-width="2.5" fill="none" stroke-linecap="round"/>
  <path d="M24 78 Q8 96 24 114" stroke="#4ade80" stroke-width="2" fill="none" stroke-linecap="round" opacity=".6"/>
  <path d="M162 86 Q174 96 162 106" stroke="#4ade80" stroke-width="2.5" fill="none" stroke-linecap="round"/>
  <path d="M168 78 Q184 96 168 114" stroke="#4ade80" stroke-width="2" fill="none" stroke-linecap="round" opacity=".6"/>
  <line x1="96" y1="50" x2="96" y2="38" stroke="url(#accentGrad)" stroke-width="3" stroke-linecap="round"/>
  <circle cx="96" cy="34" r="4" fill="#22d3ee"/>
</svg>
